# xmcd
#
# Track frame offsets: 
#        150
#        19013
#        33186
#        46303
#        61405
#        78387
#        96664
#        122072
#        142427
#        156054
#
# Disc length: 2346 seconds
#
# Revision: 0
# Processed by: cddbd v1.5.2PL0 Copyright (c) Steve Scherf et al.
# Submitted via: ExactAudioCopy v0.95a5
#
DISCID=8709280a
DTITLE=Mark Nomad - Razor's Edge
DYEAR=2004
DGENRE=Blues
TTITLE0=They Call Me Nomad
TTITLE1=I Go To Work
TTITLE2=Coming Home To You
TTITLE3=Razor's Edge
TTITLE4=Kickstand
TTITLE5=Green Eyes
TTITLE6=Special Rider
TTITLE7=Meet Me In The Bottom
TTITLE8=Waitin' On You
TTITLE9=So Bad
EXTD=
EXTT0=
EXTT1=
EXTT2=
EXTT3=
EXTT4=
EXTT5=
EXTT6=
EXTT7=
EXTT8=
EXTT9=
PLAYORDER=
